{
    "accessors" : [
        {
            "bufferView" : 0,
            "componentType" : 5123,
            "count" : 396,
            "max" : [
                191
            ],
            "min" : [
                0
            ],
            "type" : "SCALAR"
        },
        {
            "bufferView" : 1,
            "componentType" : 5126,
            "count" : 192,
            "max" : [
                0.8200005292892456,
                0.4500003755092621,
                3.0000007152557373
            ],
            "min" : [
                -0.8200005292892456,
                9.155279201422672e-08,
                -1.650001049041748
            ],
            "type" : "VEC3"
        },
        {
            "bufferView" : 2,
            "componentType" : 5126,
            "count" : 192,
            "max" : [
                1.0,
                1.0,
                1.0
            ],
            "min" : [
                -1.0,
                -1.0,
                -1.0
            ],
            "type" : "VEC3"
        },
        {
            "bufferView" : 3,
            "componentType" : 5126,
            "count" : 192,
            "max" : [
                0.0,
                1.0
            ],
            "min" : [
                0.0,
                1.0
            ],
            "type" : "VEC2"
        },
        {
            "bufferView" : 4,
            "componentType" : 5123,
            "count" : 48,
            "max" : [
                25
            ],
            "min" : [
                0
            ],
            "type" : "SCALAR"
        },
        {
            "bufferView" : 5,
            "componentType" : 5126,
            "count" : 26,
            "max" : [
                0.5300003290176392,
                0.1500001847743988,
                3.0000007152557373
            ],
            "min" : [
                -0.5300003290176392,
                0.13000017404556274,
                -0.9000005722045898
            ],
            "type" : "VEC3"
        },
        {
            "bufferView" : 6,
            "componentType" : 5126,
            "count" : 26,
            "max" : [
                1.0,
                1.0,
                1.0
            ],
            "min" : [
                -1.0,
                -0.0,
                -1.0
            ],
            "type" : "VEC3"
        },
        {
            "bufferView" : 7,
            "componentType" : 5126,
            "count" : 26,
            "max" : [
                19.5,
                19.5
            ],
            "min" : [
                0.0,
                0.0
            ],
            "type" : "VEC2"
        },
        {
            "bufferView" : 8,
            "componentType" : 5123,
            "count" : 4764,
            "max" : [
                897
            ],
            "min" : [
                0
            ],
            "type" : "SCALAR"
        },
        {
            "bufferView" : 9,
            "componentType" : 5126,
            "count" : 898,
            "max" : [
                0.05999999865889549,
                0.23499998450279236,
                0.05999999865889549
            ],
            "min" : [
                -0.05999999865889549,
                -0.14500001072883606,
                -0.05999999865889549
            ],
            "type" : "VEC3"
        },
        {
            "bufferView" : 10,
            "componentType" : 5126,
            "count" : 898,
            "max" : [
                0.999603271484375,
                0.9947813153266907,
                0.999603271484375
            ],
            "min" : [
                -0.999603271484375,
                -1.0,
                -0.999603271484375
            ],
            "type" : "VEC3"
        },
        {
            "bufferView" : 11,
            "componentType" : 5126,
            "count" : 898,
            "max" : [
                1.0,
                1.0
            ],
            "min" : [
                0.0,
                0.0
            ],
            "type" : "VEC2"
        },
        {
            "bufferView" : 12,
            "componentType" : 5123,
            "count" : 3498,
            "max" : [
                1205
            ],
            "min" : [
                0
            ],
            "type" : "SCALAR"
        },
        {
            "bufferView" : 13,
            "componentType" : 5126,
            "count" : 1206,
            "max" : [
                0.10899999737739563,
                0.10899996012449265,
                0.10900001972913742
            ],
            "min" : [
                -0.10899999737739563,
                -0.10900001227855682,
                -0.10899990797042847
            ],
            "type" : "VEC3"
        },
        {
            "bufferView" : 14,
            "componentType" : 5126,
            "count" : 1206,
            "max" : [
                1.0,
                1.0,
                0.999969482421875
            ],
            "min" : [
                -1.0,
                -0.999969482421875,
                -0.999969482421875
            ],
            "type" : "VEC3"
        },
        {
            "bufferView" : 15,
            "componentType" : 5126,
            "count" : 1206,
            "max" : [
                1.0,
                1.0
            ],
            "min" : [
                0.0,
                0.0
            ],
            "type" : "VEC2"
        }
    ],
    "asset" : {
        "generator" : "Khronos Blender glTF 2.0 exporter",
        "version" : "2.0"
    },
    "bufferViews" : [
        {
            "buffer" : 0,
            "byteLength" : 792,
            "byteOffset" : 0,
            "target" : 34963
        },
        {
            "buffer" : 0,
            "byteLength" : 2304,
            "byteOffset" : 792,
            "target" : 34962
        },
        {
            "buffer" : 0,
            "byteLength" : 2304,
            "byteOffset" : 3096,
            "target" : 34962
        },
        {
            "buffer" : 0,
            "byteLength" : 1536,
            "byteOffset" : 5400,
            "target" : 34962
        },
        {
            "buffer" : 0,
            "byteLength" : 96,
            "byteOffset" : 6936,
            "target" : 34963
        },
        {
            "buffer" : 0,
            "byteLength" : 312,
            "byteOffset" : 7032,
            "target" : 34962
        },
        {
            "buffer" : 0,
            "byteLength" : 312,
            "byteOffset" : 7344,
            "target" : 34962
        },
        {
            "buffer" : 0,
            "byteLength" : 208,
            "byteOffset" : 7656,
            "target" : 34962
        },
        {
            "buffer" : 0,
            "byteLength" : 9528,
            "byteOffset" : 7864,
            "target" : 34963
        },
        {
            "buffer" : 0,
            "byteLength" : 10776,
            "byteOffset" : 17392,
            "target" : 34962
        },
        {
            "buffer" : 0,
            "byteLength" : 10776,
            "byteOffset" : 28168,
            "target" : 34962
        },
        {
            "buffer" : 0,
            "byteLength" : 7184,
            "byteOffset" : 38944,
            "target" : 34962
        },
        {
            "buffer" : 0,
            "byteLength" : 6996,
            "byteOffset" : 46128,
            "target" : 34963
        },
        {
            "buffer" : 0,
            "byteLength" : 14472,
            "byteOffset" : 53124,
            "target" : 34962
        },
        {
            "buffer" : 0,
            "byteLength" : 14472,
            "byteOffset" : 67596,
            "target" : 34962
        },
        {
            "buffer" : 0,
            "byteLength" : 9648,
            "byteOffset" : 82068,
            "target" : 34962
        }
    ],
    "buffers" : [
        {
            "byteLength" : 91716,
            "uri" : "scene.bin"
        }
    ],
    "images" : [
        {
            "name" : "ball",
            "uri" : "ball.png"
        },
        {
            "name" : "lane",
            "uri" : "lane.png"
        },
        {
            "name" : "pin",
            "uri" : "pin.png"
        }
    ],
    "materials" : [
        {
            "name" : "Ball",
            "pbrMetallicRoughness" : {
                "baseColorTexture" : {
                    "index" : 0
                },
                "metallicFactor" : 0.0,
                "roughnessFactor" : 0.05000000074505806
            }
        },
        {
            "name" : "Lane",
            "pbrMetallicRoughness" : {
                "baseColorTexture" : {
                    "index" : 1
                },
                "metallicFactor" : 0.0,
                "roughnessFactor" : 0.5
            }
        },
        {
            "name" : "Pin",
            "pbrMetallicRoughness" : {
                "baseColorTexture" : {
                    "index" : 2
                },
                "metallicFactor" : 0.0,
                "roughnessFactor" : 0.10000000149011612
            }
        },
        {
            "name" : "Pit",
            "pbrMetallicRoughness" : {
                "metallicFactor" : 0.0,
                "roughnessFactor" : 0.5
            }
        }
    ],
    "meshes" : [
        {
            "name" : "Track",
            "primitives" : [
                {
                    "attributes" : {
                        "NORMAL" : 2,
                        "POSITION" : 1,
                        "TEXCOORD_0" : 3
                    },
                    "indices" : 0,
                    "material" : 3
                },
                {
                    "attributes" : {
                        "NORMAL" : 6,
                        "POSITION" : 5,
                        "TEXCOORD_0" : 7
                    },
                    "indices" : 4,
                    "material" : 1
                }
            ]
        },
        {
            "name" : "Pin",
            "primitives" : [
                {
                    "attributes" : {
                        "NORMAL" : 10,
                        "POSITION" : 9,
                        "TEXCOORD_0" : 11
                    },
                    "indices" : 8,
                    "material" : 2
                }
            ]
        },
        {
            "name" : "Ball",
            "primitives" : [
                {
                    "attributes" : {
                        "NORMAL" : 14,
                        "POSITION" : 13,
                        "TEXCOORD_0" : 15
                    },
                    "indices" : 12,
                    "material" : 0
                }
            ]
        }
    ],
    "nodes" : [
        {
            "mesh" : 2,
            "name" : "Ball"
        },
        {
            "mesh" : 1,
            "name" : "Pin",
            "translation" : [
                -6.3381513371041365e-09,
                0.0,
                -2.770494157422883e-16
            ]
        },
        {
            "mesh" : 0,
            "name" : "Track"
        }
    ],
    "samplers" : [
        {}
    ],
    "scene" : 0,
    "scenes" : [
        {
            "name" : "Scene",
            "nodes" : [
                2,
                1,
                0
            ]
        }
    ],
    "textures" : [
        {
            "sampler" : 0,
            "source" : 0
        },
        {
            "sampler" : 0,
            "source" : 1
        },
        {
            "sampler" : 0,
            "source" : 2
        }
    ]
}
